<svg width="100" height="100" viewBox="0 0 100 100" fill="none" xmlns="http://www.w3.org/2000/svg">
<path d="M37.5 12.5C14.9656 12.5 18.75 34.375 21.875 37.5C21.7688 32.5656 22.4187 28.1375 25 25C25.6844 25.925 26.4199 26.643 28.0762 28.0273C27.9793 20.5086 33.8563 18.675 37.5 18.75C42.9688 18.8625 46.875 25 43.75 31.25L51.4465 38.9465C62.2403 28.0403 53.125 12.5 37.5 12.5ZM34.375 25C32.2437 31.2375 33.75 35.6844 34.375 37.5C30.875 36.0594 27.7906 33.9062 25 31.25C24.6656 34.3937 24.6406 37.5219 25 40.625C21.4187 42.5938 18.2719 44.6719 15.625 46.875H21.875V53.125C25 50 28.125 46.875 34.375 43.75C31.9656 46.5312 29.9031 49.6781 28.125 53.125C30.9906 52.2313 33.5281 52 34.375 53.125L37.5 56.25C38.3594 57.3219 38.3781 59.3844 37.5 62.5L43.75 59.375C40.625 56.25 37.5 53.125 37.5 50H40.625C43.2406 50 47.9181 51.0431 49.7681 52.8931L53.125 56.25L56.25 50C53.75 50.4 51.6781 49.3156 50 46.875V43.75L37.5 31.25C35.7344 29.6187 34.8719 27.3687 34.375 25ZM78.125 37.5C74.2656 38.7469 71.5625 41.0094 68.75 43.75V40.625C65.3531 43.6281 63.5597 46.2957 62.616 49.6582C60.2066 52.1957 58.0378 55.0919 55.9753 58.02L60.4492 60.8826C62.8398 53.3951 67.4122 49.1412 72.2778 46.7224C75.8122 46.9224 79.2625 48.0125 81.25 50C84.1687 47.0812 85.5712 44.584 89.74 43.8965C90.215 43.9496 90.5273 43.9941 90.5273 43.9941C90.3742 43.9316 90.2379 43.8917 90.0879 43.8354C90.2723 43.8104 90.4313 43.7687 90.625 43.75L88.6658 43.3289C83.6158 41.5695 79.2995 41.2338 75.5432 41.9495C76.1651 40.262 77.0375 38.7906 78.125 37.5ZM42.1875 43.75C43.05 43.75 43.75 44.45 43.75 45.3125C43.75 46.175 43.05 46.875 42.1875 46.875C41.325 46.875 40.625 46.175 40.625 45.3125C40.625 44.45 41.325 43.75 42.1875 43.75ZM43.75 53.125L45.8801 55.2551C46.5176 55.8926 46.875 56.7538 46.875 57.6538V61.0229C46.875 61.9573 47.3156 62.8374 48.0469 63.4155C53.1781 67.4812 57.6188 69.9688 59.375 75C59.5719 79.8656 58.9625 80.7969 62.5 84.375C62.1813 81.0219 61.9094 80.9406 62.5 78.125C66.025 85.8938 71.2898 88.813 81.1523 86.9568C79.5555 86.2724 78.6937 85.7219 78.125 84.375C89.5188 82.6625 90.1375 68.7 81.25 65.625C83.7906 72.2469 77.3781 75.1656 71.875 75C76.3031 71.4656 74.4219 67.9188 71.875 65.625C70.3781 69.3187 66.0156 67.8187 62.5 65.625L53.125 59.375C52.0344 58.6625 50.8594 59.9875 50 59.375C48.1625 58.0375 50.7344 54.5469 43.75 53.125ZM18.75 53.2104C12.0125 58.5261 9.375 65.625 9.375 65.625H14.3127C13.644 67.8438 10.8375 78.3688 15.625 84.375C15.975 82.0219 16.8609 80.0523 17.6453 78.6804C21.3859 84.1617 27.75 87.5 34.375 87.5C44.6437 87.5 49.5153 82.081 54.3091 73.0591L48.5596 67.3096C44.2096 73.3252 39.9969 77.3781 34.375 75C25.0094 71.0375 29.2659 61.2812 32.2815 56.25L25 59.375V56.25L18.75 59.375V53.2104Z" fill="black"/>
<path fill-rule="evenodd" clip-rule="evenodd" d="M83.6623 5.22691C82.4724 4.03545 83.3162 2 85.0001 2C92.1798 2 98.0002 7.8203 98.0002 15C98.0002 16.6902 95.9562 17.5361 94.7618 16.3402L83.6623 5.22691ZM78.1987 2.58667C77.8236 2.21106 77.3145 2 76.7836 2H23.9248C23.394 2 22.8849 2.21106 22.5097 2.58667L2.70973 22.4114C2.3352 22.7864 2.12483 23.2947 2.12483 23.8247V77.3446C2.12483 77.8746 2.3352 78.3829 2.70973 78.7579L21.3419 97.4133C21.717 97.7889 22.2261 98 22.757 98H76.9964C77.5273 98 78.0364 97.7889 78.4115 97.4133L97.4152 78.3859C97.7898 78.0109 98.0002 77.5025 98.0002 76.9725V23.2405C98.0002 22.7105 97.7898 22.2022 97.4152 21.8272L78.1987 2.58667ZM98.0002 85C98.0002 83.3884 96.0512 82.5818 94.9123 83.7221L83.7248 94.9236C82.5903 96.0595 83.3948 98 85.0002 98C92.1799 98 98.0002 92.1797 98.0002 85ZM21.0987 100H85.0002C93.2844 100 100 93.2843 100 85V15C100 6.71573 93.2844 0 85.0001 0H15.1248C6.84056 0 0.124829 6.71573 0.124829 15V78.4853C0.124829 78.5419 0.102393 78.5961 0.0624493 78.6361C-0.0207238 78.7193 -0.0207239 78.8542 0.0624492 78.9375C0.102393 78.9775 0.124829 79.0317 0.124829 79.0883V85C0.124829 93.2843 6.84057 100 15.1248 100H21.0987ZM15.1248 98C16.593 98 17.3287 96.2254 16.2912 95.1866L4.94974 83.8309C3.90784 82.7877 2.12483 83.5256 2.12483 85C2.12483 92.1797 7.94514 98 15.1248 98ZM2.12483 15.3341C2.12483 17.1166 4.28036 18.0086 5.53992 16.7475L16.8599 5.41333C18.1187 4.15304 17.2261 2 15.4448 2H15.1248C7.94513 2 2.12483 7.8203 2.12483 15V15.3341Z" fill="black"/>
</svg>
