<svg width="40" height="40" viewBox="0 0 40 40" fill="none" xmlns="http://www.w3.org/2000/svg">
<rect width="40" height="40" rx="8" fill="#29384D"/>
<g clip-path="url(#clip0_13_2453)">
<path fill-rule="evenodd" clip-rule="evenodd" d="M28.2303 19.0784C28.1726 18.8343 27.9967 18.6352 27.7616 18.5478L22.3606 16.5219L23.735 9.64719C23.7989 9.31904 23.638 8.98819 23.3403 8.83599C23.0426 8.68379 22.6802 8.74698 22.4516 8.99094L11.9516 20.2409C11.7783 20.4235 11.7082 20.6807 11.7648 20.9259C11.8214 21.1711 11.9971 21.3715 12.2328 21.4597L17.6356 23.4856L16.265 30.3528C16.2011 30.681 16.362 31.0118 16.6597 31.164C16.9574 31.3162 17.3198 31.253 17.5484 31.0091L28.0484 19.7591C28.2185 19.5766 28.2866 19.3214 28.2303 19.0784ZM18.2534 28.0625L19.235 23.1519C19.3075 22.7922 19.1092 22.4328 18.7662 22.3025L13.8125 20.4416L21.7456 11.9422L20.765 16.8528C20.6925 17.2125 20.8908 17.5718 21.2338 17.7022L26.1838 19.5584L18.2534 28.0625Z" fill="#F7FAFA"/>
</g>
<defs>
<clipPath id="clip0_13_2453">
<rect width="24" height="24" fill="white" transform="translate(8 8)"/>
</clipPath>
</defs>
</svg>
