<svg width="402" height="750" viewBox="0 0 402 750" fill="none" xmlns="http://www.w3.org/2000/svg">
<path fill-rule="evenodd" clip-rule="evenodd" d="M387 2L35.0624 2.00002C34.2668 2.00002 33.5037 2.31609 32.9411 2.8787L2.87868 32.9411C2.31607 33.5038 2 34.2668 2 35.0624V735C2 742.18 7.82031 748 15 748H367.678C368.473 748 369.236 747.684 369.799 747.121L399.121 717.799C399.684 717.236 400 716.473 400 715.678V15C400 7.8203 394.18 2 387 2ZM400 726.991C400 724.319 396.769 722.98 394.879 724.87L376.87 742.879C374.98 744.769 376.319 748 378.991 748H387C394.18 748 400 742.18 400 735V726.991ZM15 2H23.7488C26.4215 2 27.76 5.23143 25.8701 7.12132L7.12132 25.8701C5.23143 27.76 2 26.4215 2 23.7488V15C2 7.82029 7.8203 2 15 2ZM15 0C6.71573 0 0 6.71571 0 15V735C0 743.284 6.71574 750 15 750H387C395.284 750 402 743.284 402 735V15C402 6.71573 395.284 0 387 0H15Z" fill="black"/>
</svg>
