<svg width="100" height="100" viewBox="0 0 100 100" fill="none" xmlns="http://www.w3.org/2000/svg">
<path fill-rule="evenodd" clip-rule="evenodd" d="M83.6623 5.22691C82.4723 4.03545 83.3161 2 85.0001 2C92.1798 2 98.0001 7.8203 98.0001 15C98.0001 16.6902 95.9561 17.5361 94.7617 16.3402L83.6623 5.22691ZM78.1986 2.58667C77.8235 2.21106 77.3144 2 76.7835 2H23.9248C23.3939 2 22.8848 2.21106 22.5097 2.58667L2.70966 22.4114C2.33513 22.7864 2.12476 23.2947 2.12476 23.8247V77.3446C2.12476 77.8746 2.33513 78.3829 2.70966 78.7579L21.3418 97.4133C21.717 97.7889 22.226 98 22.7569 98H76.9963C77.5272 98 78.0363 97.7889 78.4114 97.4133L97.4152 78.3859C97.7897 78.0109 98.0001 77.5025 98.0001 76.9725V23.2405C98.0001 22.7105 97.7897 22.2022 97.4152 21.8272L78.1986 2.58667ZM98.0001 85C98.0001 83.3884 96.0511 82.5818 94.9123 83.7221L83.7247 94.9236C82.5902 96.0595 83.3947 98 85.0001 98C92.1798 98 98.0001 92.1797 98.0001 85ZM21.0986 100H85.0001C93.2844 100 100 93.2843 100 85V15C100 6.71573 93.2843 0 85.0001 0H15.1248C6.84049 0 0.12476 6.71573 0.12476 15V78.4853C0.12476 78.5419 0.102324 78.5961 0.0623798 78.6361C-0.0207933 78.7193 -0.0207933 78.8542 0.0623798 78.9375C0.102324 78.9775 0.12476 79.0317 0.12476 79.0883V85C0.12476 93.2843 6.8405 100 15.1248 100H21.0986ZM15.1248 98C16.5929 98 17.3287 96.2254 16.2912 95.1866L4.94967 83.8309C3.90778 82.7877 2.12476 83.5256 2.12476 85C2.12476 92.1797 7.94507 98 15.1248 98ZM2.12476 15.3341C2.12476 17.1166 4.28029 18.0086 5.53986 16.7475L16.8599 5.41333C18.1186 4.15304 17.226 2 15.4448 2H15.1248C7.94506 2 2.12476 7.8203 2.12476 15V15.3341Z" fill="black"/>
</svg>
